<?xml version="1.0" encoding="utf-8"?><svg viewBox="0 0 800 800" xmlns="http://www.w3.org/2000/svg" xmlns:xlink="http://www.w3.org/1999/xlink"><style>:root>svg{display:none}:root>svg:target{display:block}</style><svg viewBox="0 0 24 24" fill="none" id="first" xmlns="http://www.w3.org/2000/svg"><path d="M7 12h10M8 8.5S9 9 10 9c1.5 0 2.5-1 4-1 1 0 2 .5 2 .5m-8 7s1 .5 2 .5c1.5 0 2.5-1 4-1 1 0 2 .5 2 .5m5-3.5a9 9 0 1 1-18 0 9 9 0 0 1 18 0Z" stroke="#000" stroke-width="2" stroke-linecap="round" stroke-linejoin="round"/></svg><svg viewBox="0 0 24 24" fill="none" id="second" xmlns="http://www.w3.org/2000/svg"><path d="M3 18h4m3 0h11M5 21h7m4 0h3M8.8 15C6.149 15 4 12.947 4 10.414 4 8.314 5.6 6.375 8 6a5.057 5.057 0 0 1 4.613-3c2.662 0 4.837 1.99 4.987 4.5 1.413.596 2.4 2.057 2.4 3.64 0 2.132-1.79 3.86-4 3.86H8.8Z" stroke="#000" stroke-width="2" stroke-linecap="round" stroke-linejoin="round"/></svg><svg viewBox="0 0 24 24" fill="none" id="third" xmlns="http://www.w3.org/2000/svg"><path d="M5.256 16A5.33 5.33 0 0 1 3 11.65C3 9.2 4.8 6.936 7.5 6.5 8.347 4.486 10.351 3 12.69 3c2.994 0 5.442 2.323 5.61 5.25 1.59.695 2.7 2.4 2.7 4.247a4.5 4.5 0 0 1-2 3.745M12 21V11m0 10-3-3m3 3 3-3" stroke="#000" stroke-width="2" stroke-linecap="round" stroke-linejoin="round"/></svg></svg>